# xmcd
#
# Track frame offsets: 
#        150
#        12857
#        21710
#        33830
#        46022
#        56300
#        68545
#        81115
#        94137
#        105437
#        117757
#        129320
#        145872
#        157855
#        170720
#        182257
#        195227
#        210935
#        224227
#        231620
#        242435
#        256250
#        268060
#        279667
#        290437
#        300410
#        310297
#
# Disc length: 4272 seconds
#
# Revision: 1
# Processed by: cddbd v1.5.2PL0 Copyright (c) Steve Scherf et al.
# Submitted via: ExactAudioCopyFreeDBPlugin 1.0
#
DISCID=6d10ae1b
DTITLE=Billy Walker - Cross the Brazos at Waco - Disc 6
DYEAR=1993
DGENRE=Country
TTITLE0=Storm Of Love
TTITLE1=That Would Sure Go Good
TTITLE2=Heart Be Careful
TTITLE3=Circumstances
TTITLE4=It's Lonesome
TTITLE5=The Morning Paper
TTITLE6=Coming Back For More
TTITLE7=Cross the Brazos At Waco
TTITLE8=Down To My Last Cigarette
TTITLE9=If It Pleases You
TTITLE10=I'm So Misreable Without You
TTITLE11=Matamoros
TTITLE12=Samuel Colt
TTITLE13=Blue Moonlight
TTITLE14=Come A Little Bit Closer
TTITLE15=The Gun, The Gold, The Girl
TTITLE16=The Blizzard
TTITLE17=Pancho Villa
TTITLE18=Cattle Call
TTITLE19=Amigo's Guitar
TTITLE20=The Lawman
TTITLE21=Buy Juanita Some Flowers
TTITLE22=I'm Nothing To You
TTITLE23=Smokey Memories
TTITLE24=Nobody But A Fool
TTITLE25=Pretend You Don't See Me
TTITLE26=Don't Change
EXTD=
EXTT0=
EXTT1=
EXTT2=
EXTT3=
EXTT4=
EXTT5=
EXTT6=
EXTT7=
EXTT8=
EXTT9=
EXTT10=
EXTT11=
EXTT12=
EXTT13=
EXTT14=
EXTT15=
EXTT16=
EXTT17=
EXTT18=
EXTT19=
EXTT20=
EXTT21=
EXTT22=
EXTT23=
EXTT24=
EXTT25=
EXTT26=
PLAYORDER=
